<svg xmlns="http://www.w3.org/2000/svg" viewBox="0 0 64 64" role="img" aria-label="atendimento">
<title>atendimento</title>
<defs>
  <linearGradient id="bg" x1="0" y1="0" x2="1" y2="1">
    <stop offset="0" stop-color="#071426"/>
    <stop offset="0.62" stop-color="#0d2340"/>
    <stop offset="1" stop-color="#132f57"/>
  </linearGradient>
  <radialGradient id="glow" cx="76%" cy="18%" r="55%">
    <stop offset="0" stop-color="#ffd67a" stop-opacity="0.35"/>
    <stop offset="1" stop-color="#ffd67a" stop-opacity="0"/>
  </radialGradient>
  <filter id="shadow" x="-20%" y="-20%" width="140%" height="140%">
    <feDropShadow dx="0" dy="2" stdDeviation="1.6" flood-color="#000" flood-opacity="0.34"/>
  </filter>
</defs>
<rect x="2" y="2" width="60" height="60" rx="15" fill="url(#bg)"/>
<rect x="2.75" y="2.75" width="58.5" height="58.5" rx="14.25" fill="none" stroke="#d6a84e" stroke-width="1.5" opacity="0.92"/>
<rect x="6" y="6" width="52" height="52" rx="12" fill="url(#glow)"/>
<circle cx="51" cy="13" r="7" fill="#ffd67a" opacity="0.18"/>

<g filter="url(#shadow)">

  <path d="M17 34v-4c0-8 6-14 15-14s15 6 15 14v4" fill="none" stroke="#4dd0ff" stroke-width="4" stroke-linecap="round"/>
  <rect x="12" y="31" width="9" height="14" rx="4" fill="#78e08f"/>
  <rect x="43" y="31" width="9" height="14" rx="4" fill="#78e08f"/>
  <path d="M43 45c-3 5-9 6-16 5" fill="none" stroke="#4dd0ff" stroke-width="3" stroke-linecap="round"/>
  <circle cx="27" cy="50" r="3" fill="#f6c453"/>

</g>
</svg>
