<svg xmlns="http://www.w3.org/2000/svg" viewBox="0 0 64 64" role="img" aria-label="controle-guias">
<title>controle-guias</title>
<defs>
  <linearGradient id="bg" x1="0" y1="0" x2="1" y2="1">
    <stop offset="0" stop-color="#071426"/>
    <stop offset="0.62" stop-color="#0d2340"/>
    <stop offset="1" stop-color="#132f57"/>
  </linearGradient>
  <radialGradient id="glow" cx="76%" cy="18%" r="55%">
    <stop offset="0" stop-color="#ffd67a" stop-opacity="0.35"/>
    <stop offset="1" stop-color="#ffd67a" stop-opacity="0"/>
  </radialGradient>
  <filter id="shadow" x="-20%" y="-20%" width="140%" height="140%">
    <feDropShadow dx="0" dy="2" stdDeviation="1.6" flood-color="#000" flood-opacity="0.34"/>
  </filter>
</defs>
<rect x="2" y="2" width="60" height="60" rx="15" fill="url(#bg)"/>
<rect x="2.75" y="2.75" width="58.5" height="58.5" rx="14.25" fill="none" stroke="#d6a84e" stroke-width="1.5" opacity="0.92"/>
<rect x="6" y="6" width="52" height="52" rx="12" fill="url(#glow)"/>
<circle cx="51" cy="13" r="7" fill="#ffd67a" opacity="0.18"/>

<g filter="url(#shadow)">

  <path d="M20 11h24v42l-5-3-5 3-5-3-5 3-4-3z" fill="#f7f2de"/>
  <path d="M25 21h14M25 29h10" stroke="#0d2340" stroke-width="3" stroke-linecap="round"/>
  <path d="M25 39v7M31 39v7M36 39v7M41 39v7" stroke="#ff5c7a" stroke-width="2.4" stroke-linecap="round"/>

</g>
</svg>
