<svg xmlns="http://www.w3.org/2000/svg" viewBox="0 0 64 64" role="img" aria-label="elicitacao">
<title>elicitacao</title>
<defs>
  <linearGradient id="bg" x1="0" y1="0" x2="1" y2="1">
    <stop offset="0" stop-color="#071426"/>
    <stop offset="0.62" stop-color="#0d2340"/>
    <stop offset="1" stop-color="#132f57"/>
  </linearGradient>
  <radialGradient id="glow" cx="76%" cy="18%" r="55%">
    <stop offset="0" stop-color="#ffd67a" stop-opacity="0.35"/>
    <stop offset="1" stop-color="#ffd67a" stop-opacity="0"/>
  </radialGradient>
  <filter id="shadow" x="-20%" y="-20%" width="140%" height="140%">
    <feDropShadow dx="0" dy="2" stdDeviation="1.6" flood-color="#000" flood-opacity="0.34"/>
  </filter>
</defs>
<rect x="2" y="2" width="60" height="60" rx="15" fill="url(#bg)"/>
<rect x="2.75" y="2.75" width="58.5" height="58.5" rx="14.25" fill="none" stroke="#d6a84e" stroke-width="1.5" opacity="0.92"/>
<rect x="6" y="6" width="52" height="52" rx="12" fill="url(#glow)"/>
<circle cx="51" cy="13" r="7" fill="#ffd67a" opacity="0.18"/>

<g filter="url(#shadow)">

  <path d="M32 11c-8 0-14 6-14 14 0 5 3 9 7 12v5h14v-5c4-3 7-7 7-12 0-8-6-14-14-14z" fill="#f6c453"/>
  <rect x="25" y="43" width="14" height="7" rx="2" fill="#f7f2de"/>
  <path d="M28 27c0-3 2-5 5-5s5 2 5 5c0 4-5 4-5 8" fill="none" stroke="#071426" stroke-width="3" stroke-linecap="round"/>
  <circle cx="33" cy="38" r="2" fill="#071426"/>

</g>
</svg>
