<svg xmlns="http://www.w3.org/2000/svg" viewBox="0 0 64 64" role="img" aria-label="mapa-tarefas">
<title>mapa-tarefas</title>
<defs>
  <linearGradient id="bg" x1="0" y1="0" x2="1" y2="1">
    <stop offset="0" stop-color="#071426"/>
    <stop offset="0.62" stop-color="#0d2340"/>
    <stop offset="1" stop-color="#132f57"/>
  </linearGradient>
  <radialGradient id="glow" cx="76%" cy="18%" r="55%">
    <stop offset="0" stop-color="#ffd67a" stop-opacity="0.35"/>
    <stop offset="1" stop-color="#ffd67a" stop-opacity="0"/>
  </radialGradient>
  <filter id="shadow" x="-20%" y="-20%" width="140%" height="140%">
    <feDropShadow dx="0" dy="2" stdDeviation="1.6" flood-color="#000" flood-opacity="0.34"/>
  </filter>
</defs>
<rect x="2" y="2" width="60" height="60" rx="15" fill="url(#bg)"/>
<rect x="2.75" y="2.75" width="58.5" height="58.5" rx="14.25" fill="none" stroke="#d6a84e" stroke-width="1.5" opacity="0.92"/>
<rect x="6" y="6" width="52" height="52" rx="12" fill="url(#glow)"/>
<circle cx="51" cy="13" r="7" fill="#ffd67a" opacity="0.18"/>

<g filter="url(#shadow)">

  <path d="M17 17l11-4 12 4 9-4v34l-9 4-12-4-11 4z" fill="#f7f2de"/>
  <path d="M28 13v34M40 17v34" stroke="#0d2340" stroke-width="2.5" opacity=".45"/>
  <path d="M20 42c8-11 20 1 26-13" fill="none" stroke="#1fcf6b" stroke-width="4" stroke-linecap="round" stroke-dasharray="4 5"/>
  <path d="M42 22c0 6-6 11-6 11s-6-5-6-11a6 6 0 0112 0z" fill="#ff5c7a"/><circle cx="36" cy="22" r="2.4" fill="#fff"/>

</g>
</svg>
